<svg t="1752505968401" class="icon" viewBox="0 0 1024 1024" version="1.1" xmlns="http://www.w3.org/2000/svg" p-id="974" width="200" height="200"><path d="M478.849293 951.492525c-36.421818-10.175354-75.132121-15.502222-108.903434-31.340606-177.842424-83.432727-251.578182-275.393939-179.859394-459.571717 46.946263-120.552727 124.677172-219.345455 215.841616-308.764444C428.890505 129.292929 452.538182 107.313131 477.181414 86.665051c21.772929-18.230303 45.136162-19.212929 66.094546-0.943839 122.505051 106.718384 230.994747 224.400808 289.848888 379.810909 60.030707 158.500202 12.25697 324.615758-122.427474 422.296566-45.136162 32.73697-96 52.48-151.570101 59.552323-4.887273 0.620606-9.593535 2.702222-14.377374 4.111515h-65.900606z m34.37899-815.411717c-67.995152 47.54101-181.540202 178.954343-228.964849 263.705859C250.686061 459.765657 226.327273 522.343434 222.53899 592.161616c-9.968485 183.751111 164.706263 333.873131 344.746667 295.460202 170.123636-36.292525 271.036768-208.833939 219.410101-375.078788-48.652929-156.728889-157.931313-268.929293-273.467475-376.462222z m0 0" p-id="975"></path><path d="M441.78101 579.594343c-33.409293 33.499798-66.366061 66.624646-99.426263 99.65899-5.158788 5.158788-10.291717 10.472727-16.148686 14.778182-15.618586 11.455354-31.392323 11.494141-45.679192-2.159192-12.877576-12.295758-13.330101-33.086061 0.025858-47.592727 18.799192-20.428283 38.839596-39.731717 58.440404-59.42303 25.276768-25.393131 50.346667-51.006061 76.050101-75.972526 21.915152-21.268687 38.21899-19.329293 59.836768 2.728081 34.74101 35.426263 70.619798 69.740606 107.442424 105.916768 33.82303-33.874747 67.697778-67.943434 101.792323-101.779394 6.180202-6.128485 12.631919-12.580202 20.169697-16.601212 16.290909-8.675556 31.573333-5.546667 42.951112 9.128081 10.666667 13.743838 11.636364 29.142626-0.879192 41.916767-46.558384 47.528081-93.297778 94.90101-141.006869 141.278384-17.868283 17.36404-35.051313 14.105859-53.385051-4.163232-35.646061-35.555556-71.977374-70.438788-110.183434-107.71394z m0 0" p-id="976"></path></svg>